<?xml version="1.0" encoding="utf-8"?>
<!-- Generator: Adobe Illustrator 20.0.0, SVG Export Plug-In . SVG Version: 6.00 Build 0)  -->
<svg version="1.1" id="Layer_1" xmlns="http://www.w3.org/2000/svg" xmlns:xlink="http://www.w3.org/1999/xlink" x="0px" y="0px"
	 viewBox="0 0 14.2 3.7" style="enable-background:new 0 0 14.2 3.7;" xml:space="preserve">
<style type="text/css">
	.st0{fill:#091117;}
	.st1{fill:none;stroke:#000000;stroke-width:0.3;}
</style>
<g>
	<g>
		<g>
			<path class="st0" d="M-8.4-5.9l-7.5-8.4c-2.1-2.3-5.6-2.5-7.9-0.4l-7,6.2c-2.7,2.4-5.4,5.5-9,1.5l-3.8-4.3
				c-1.5-1.6-4-1.7-5.6-0.3L-55-6.3c-1.6,1.5-1.7,4-0.3,5.6l4.1,4.6c2.2,2.5,2.5,4.3-0.5,7l-2.7,2.4c-3.3,3-6.1,1.9-8.9-1.3
				l-4.2-4.7c-4.2-4.6-2.7-7,0.8-10l9.7-8.7c2.1-1.8,2.2-5.1,0.4-7.1l-10.6-11.8c-1.8-2.1-5.1-2.2-7.1-0.4l-11.6,10.4
				c-2.1,1.8-2.2,5.1-0.4,7.1l8.6,9.6c3.4,3.8,3.8,6.3-0.6,10.3l-6,5.4c-2.1,1.9-2.3,5.3-0.4,7.4l7.1,7.9c1.9,2.1,5.3,2.3,7.4,0.4
				l5.5-4.9c3.7-3.3,6.5-4.1,9.9-0.3l3.6,4c1.5,1.6,3.9,1.8,5.6,0.3l6-5.4c1.6-1.5,1.8-3.9,0.3-5.6l-3.8-4.3
				c-2.9-3.3-1.8-5.6,0.9-8.1l2.3-2c3.8-3.4,6.1-2.3,8.8,0.8l6.2,7c2.1,2.3,5.6,2.5,7.9,0.4L-8.8,2C-6.5,0-6.3-3.5-8.4-5.9z"/>
		</g>
	</g>
	<line class="st1" x1="-87.8" y1="-86.1" x2="-87.8" y2="-50.1"/>
	<line class="st1" x1="-141.8" y1="-32.1" x2="-105.8" y2="-32.1"/>
	<line class="st1" x1="-141.8" y1="28.9" x2="-105.8" y2="28.9"/>
	<line class="st1" x1="-87.8" y1="82.9" x2="-87.8" y2="46.9"/>
	<line class="st1" x1="-6.9" y1="-86.1" x2="-6.9" y2="-50.1"/>
	<line class="st1" x1="47.1" y1="-32.1" x2="11.1" y2="-32.1"/>
	<line class="st1" x1="47.1" y1="28.9" x2="11.1" y2="28.9"/>
	<line class="st1" x1="-6.9" y1="82.9" x2="-6.9" y2="46.9"/>
</g>
<g>
	<path class="st0" d="M-51.8,61c-34.7,0-63-28.3-63-63s28.3-63,63-63s63,28.3,63,63S-17.2,61-51.8,61z M-51.8-49.1
		C-77.8-49.1-99-28-99-2s21.2,47,47.1,47S-4.7,24-4.7-2S-25.9-49.1-51.8-49.1z"/>
</g>
</svg>
