<?xml version="1.0" encoding="utf-8"?>
<!-- Generator: Adobe Illustrator 16.0.0, SVG Export Plug-In . SVG Version: 6.00 Build 0)  -->
<!DOCTYPE svg PUBLIC "-//W3C//DTD SVG 1.1//EN" "http://www.w3.org/Graphics/SVG/1.1/DTD/svg11.dtd">
<svg version="1.1" id="Layer_1" xmlns="http://www.w3.org/2000/svg" xmlns:xlink="http://www.w3.org/1999/xlink" x="0px" y="0px"
	 width="144px" height="72px" viewBox="0 0 144 72" enable-background="new 0 0 144 72" xml:space="preserve">
<g>
	<g>
		<g>
			<path fill="#091117" d="M96.469,33.581l-4.275-4.725c-1.181-1.294-3.149-1.406-4.443-0.225l-3.881,3.543
				c-1.52,1.35-3.038,3.094-5.062,0.9l-2.194-2.419c-0.844-0.9-2.25-0.956-3.149-0.169L70.2,33.469
				c-0.9,0.844-0.957,2.25-0.169,3.15l2.306,2.587c1.238,1.351,1.407,2.419-0.281,3.938l-1.519,1.406
				c-1.856,1.688-3.431,1.069-5.062-0.731l-2.363-2.644c-2.362-2.587-1.519-3.938,0.394-5.625l5.456-4.894
				c1.125-1.013,1.238-2.869,0.225-3.994l-6.019-6.694c-1.013-1.125-2.869-1.237-3.994-0.225L52.65,25.65
				c-1.125,1.013-1.237,2.869-0.225,3.994l4.838,5.344c1.912,2.138,2.137,3.544-0.338,5.794l-3.375,3.037
				c-1.181,1.069-1.293,2.981-0.225,4.163l3.994,4.443c1.069,1.182,2.981,1.294,4.163,0.226l3.094-2.812
				c2.081-1.856,3.656-2.307,5.568-0.169l2.025,2.25c0.844,0.899,2.193,1.013,3.149,0.169l3.375-3.038
				c0.9-0.844,1.013-2.193,0.169-3.149l-2.193-2.419c-1.688-1.856-1.069-3.15,0.506-4.557l1.237-1.125
				c2.138-1.912,3.432-1.294,5.007,0.45l3.544,3.881c1.181,1.294,3.149,1.406,4.443,0.226l4.725-4.275
				C97.537,36.844,97.594,34.875,96.469,33.581z"/>
		</g>
	</g>
	<g>
		<path fill="#091117" d="M72,71.55c-19.519,0-35.438-15.919-35.438-35.438S52.481,0.675,72,0.675s35.438,15.919,35.438,35.438
			S91.519,71.55,72,71.55z M72,9.619c-14.625,0-26.494,11.925-26.494,26.494C45.506,50.682,57.431,62.55,72,62.55
			c14.568,0,26.494-11.812,26.494-26.438S86.625,9.619,72,9.619z"/>
	</g>
</g>
</svg>
